{
    "asset" : {
        "generator" : "Khronos glTF Blender I/O v1.4.40",
        "version" : "2.0"
    },
    "scene" : 0,
    "scenes" : [
        {
            "name" : "Scene",
            "nodes" : [
                0,
                1,
                2,
                3,
                4,
                5,
                6
            ]
        }
    ],
    "nodes" : [
        {
            "name" : "Light.001",
            "rotation" : [
                0.16907575726509094,
                0.7558803558349609,
                -0.27217137813568115,
                0.570947527885437
            ],
            "translation" : [
                4.076245307922363,
                5.903861999511719,
                -1.0054539442062378
            ]
        },
        {
            "name" : "Camera.001",
            "rotation" : [
                0.483536034822464,
                0.33687159419059753,
                -0.20870360732078552,
                0.7804827094078064
            ],
            "translation" : [
                7.358891487121582,
                4.958309173583984,
                6.925790786743164
            ]
        },
        {
            "mesh" : 0,
            "name" : "Cube",
            "translation" : [
                14.812382698059082,
                0,
                0
            ]
        },
        {
            "mesh" : 1,
            "name" : "Cube.001",
            "scale" : [
                1,
                -0.2730604410171509,
                1
            ],
            "translation" : [
                13.000633239746094,
                0.25280630588531494,
                0
            ]
        },
        {
            "name" : "Camera",
            "rotation" : [
                0.483536034822464,
                0.33687159419059753,
                -0.20870360732078552,
                0.7804827094078064
            ],
            "translation" : [
                7.358891487121582,
                4.958309173583984,
                6.925790786743164
            ]
        },
        {
            "name" : "Light.002",
            "rotation" : [
                0.16907575726509094,
                0.7558803558349609,
                -0.27217137813568115,
                0.570947527885437
            ],
            "translation" : [
                0.4437589645385742,
                5.903861999511719,
                -1.0054539442062378
            ]
        },
        {
            "name" : "Sun"
        }
    ],
    "meshes" : [
        {
            "name" : "Cube.001",
            "primitives" : [
                {
                    "attributes" : {
                        "POSITION" : 0,
                        "NORMAL" : 1,
                        "TEXCOORD_0" : 2
                    },
                    "indices" : 3
                }
            ]
        },
        {
            "name" : "Cube.002",
            "primitives" : [
                {
                    "attributes" : {
                        "POSITION" : 4,
                        "NORMAL" : 5,
                        "TEXCOORD_0" : 6
                    },
                    "indices" : 7
                }
            ]
        }
    ],
    "accessors" : [
        {
            "bufferView" : 0,
            "componentType" : 5126,
            "count" : 6641,
            "max" : [
                9.31600570678711,
                13.784055709838867,
                43.47394943237305
            ],
            "min" : [
                -30.48404884338379,
                -0.020254135131835938,
                -43.47394943237305
            ],
            "type" : "VEC3"
        },
        {
            "bufferView" : 1,
            "componentType" : 5126,
            "count" : 6641,
            "type" : "VEC3"
        },
        {
            "bufferView" : 2,
            "componentType" : 5126,
            "count" : 6641,
            "type" : "VEC2"
        },
        {
            "bufferView" : 3,
            "componentType" : 5123,
            "count" : 8100,
            "type" : "SCALAR"
        },
        {
            "bufferView" : 4,
            "componentType" : 5126,
            "count" : 232,
            "max" : [
                1.217280626296997,
                1,
                43.47394943237305
            ],
            "min" : [
                -28.672298431396484,
                -1,
                -43.47394943237305
            ],
            "type" : "VEC3"
        },
        {
            "bufferView" : 5,
            "componentType" : 5126,
            "count" : 232,
            "type" : "VEC3"
        },
        {
            "bufferView" : 6,
            "componentType" : 5126,
            "count" : 232,
            "type" : "VEC2"
        },
        {
            "bufferView" : 7,
            "componentType" : 5123,
            "count" : 432,
            "type" : "SCALAR"
        }
    ],
    "bufferViews" : [
        {
            "buffer" : 0,
            "byteLength" : 79692,
            "byteOffset" : 0
        },
        {
            "buffer" : 0,
            "byteLength" : 79692,
            "byteOffset" : 79692
        },
        {
            "buffer" : 0,
            "byteLength" : 53128,
            "byteOffset" : 159384
        },
        {
            "buffer" : 0,
            "byteLength" : 16200,
            "byteOffset" : 212512
        },
        {
            "buffer" : 0,
            "byteLength" : 2784,
            "byteOffset" : 228712
        },
        {
            "buffer" : 0,
            "byteLength" : 2784,
            "byteOffset" : 231496
        },
        {
            "buffer" : 0,
            "byteLength" : 1856,
            "byteOffset" : 234280
        },
        {
            "buffer" : 0,
            "byteLength" : 864,
            "byteOffset" : 236136
        }
    ],
    "buffers" : [
        {
            "byteLength" : 237000,
            "uri" : "data:application/octet-stream;base64,"
        }
    ]
}
