{
    "asset" : {
        "generator" : "Khronos glTF Blender I/O v1.8.19",
        "version" : "2.0"
    },
    "extensionsUsed" : [
        "KHR_materials_transmission"
    ],
    "scene" : 0,
    "scenes" : [
        {
            "name" : "Scene",
            "nodes" : [
                0,
                1
            ]
        }
    ],
    "nodes" : [
        {
            "mesh" : 0,
            "name" : "Plane",
            "scale" : [
                2.1743035316467285,
                2.1743035316467285,
                2.1743035316467285
            ]
        },
        {
            "mesh" : 1,
            "name" : "Plane.001",
            "scale" : [
                9.763887405395508,
                9.763887405395508,
                9.763887405395508
            ],
            "translation" : [
                0,
                0.029999999329447746,
                0
            ]
        }
    ],
    "materials" : [
        {
            "doubleSided" : true,
            "name" : "Tierra",
            "pbrMetallicRoughness" : {
                "baseColorFactor" : [
                    0.11493515223264694,
                    0.03698289021849632,
                    0.030960040166974068,
                    1
                ],
                "metallicFactor" : 0,
                "roughnessFactor" : 0.4000000059604645
            }
        },
        {
            "doubleSided" : true,
            "extensions" : {
                "KHR_materials_transmission" : {
                    "transmissionFactor" : 1
                }
            },
            "name" : "Material",
            "pbrMetallicRoughness" : {
                "baseColorFactor" : [
                    0.800000011920929,
                    0.800000011920929,
                    0.800000011920929,
                    1
                ],
                "metallicFactor" : 0,
                "roughnessFactor" : 0.25563910603523254
            }
        }
    ],
    "meshes" : [
        {
            "name" : "Plane",
            "primitives" : [
                {
                    "attributes" : {
                        "POSITION" : 0,
                        "NORMAL" : 1,
                        "TEXCOORD_0" : 2
                    },
                    "indices" : 3,
                    "material" : 0
                }
            ]
        },
        {
            "name" : "Plane.001",
            "primitives" : [
                {
                    "attributes" : {
                        "POSITION" : 4,
                        "NORMAL" : 5,
                        "TEXCOORD_0" : 6
                    },
                    "indices" : 7,
                    "material" : 1
                }
            ]
        }
    ],
    "accessors" : [
        {
            "bufferView" : 0,
            "componentType" : 5126,
            "count" : 3281,
            "max" : [
                1,
                0.16517551243305206,
                1
            ],
            "min" : [
                -1,
                0,
                -1
            ],
            "type" : "VEC3"
        },
        {
            "bufferView" : 1,
            "componentType" : 5126,
            "count" : 3281,
            "type" : "VEC3"
        },
        {
            "bufferView" : 2,
            "componentType" : 5126,
            "count" : 3281,
            "type" : "VEC2"
        },
        {
            "bufferView" : 3,
            "componentType" : 5123,
            "count" : 6144,
            "type" : "SCALAR"
        },
        {
            "bufferView" : 4,
            "componentType" : 5126,
            "count" : 4,
            "max" : [
                1,
                0,
                1
            ],
            "min" : [
                -1,
                0,
                -1
            ],
            "type" : "VEC3"
        },
        {
            "bufferView" : 5,
            "componentType" : 5126,
            "count" : 4,
            "type" : "VEC3"
        },
        {
            "bufferView" : 6,
            "componentType" : 5126,
            "count" : 4,
            "type" : "VEC2"
        },
        {
            "bufferView" : 7,
            "componentType" : 5123,
            "count" : 6,
            "type" : "SCALAR"
        }
    ],
    "bufferViews" : [
        {
            "buffer" : 0,
            "byteLength" : 39372,
            "byteOffset" : 0
        },
        {
            "buffer" : 0,
            "byteLength" : 39372,
            "byteOffset" : 39372
        },
        {
            "buffer" : 0,
            "byteLength" : 26248,
            "byteOffset" : 78744
        },
        {
            "buffer" : 0,
            "byteLength" : 12288,
            "byteOffset" : 104992
        },
        {
            "buffer" : 0,
            "byteLength" : 48,
            "byteOffset" : 117280
        },
        {
            "buffer" : 0,
            "byteLength" : 48,
            "byteOffset" : 117328
        },
        {
            "buffer" : 0,
            "byteLength" : 32,
            "byteOffset" : 117376
        },
        {
            "buffer" : 0,
            "byteLength" : 12,
            "byteOffset" : 117408
        }
    ],
    "buffers" : [
        {
            "byteLength" : 117420,
            "uri" : "data:application/octet-stream;base64,"
        }
    ]
}
